<svg xmlns="http://www.w3.org/2000/svg" width="32" height="32" viewBox="0 0 32 32" fill="none">
  <g opacity="0.9">
    <path fill-rule="evenodd" clip-rule="evenodd"
      d="M12.5354 5C11.8664 5 11.2417 5.33452 10.8708 5.89136L9.46449 8.00296H8C5.79086 8.00296 4 9.79382 4 12.003V23C4 25.2091 5.79086 27 8 27H24C26.2091 27 28 25.2091 28 23V12.003C28 9.79382 26.2091 8.00296 24 8.00296L22.5354 8.00296L21.1291 5.89136C20.7582 5.33452 20.1335 5 19.4645 5H12.5354ZM16 10.5C12.5482 10.5 9.74997 13.2982 9.74997 16.75C9.74997 20.2018 12.5482 23 16 23C19.4517 23 22.25 20.2018 22.25 16.75C22.25 13.2982 19.4517 10.5 16 10.5ZM12.25 16.75C12.25 14.6789 13.9289 13 16 13C18.071 13 19.75 14.6789 19.75 16.75C19.75 18.8211 18.071 20.5 16 20.5C13.9289 20.5 12.25 18.8211 12.25 16.75Z"
      fill="white" />
  </g>
</svg>